<?xml version="1.0" ?><svg contentScriptType="text/ecmascript" contentStyleType="text/css" enable-background="new 0 0 20 20" height="20px" id="Layer_1" preserveAspectRatio="xMidYMid meet" version="1.1" viewBox="0.0 0 1515.0 2048" width="20px" xml:space="preserve" xmlns="http://www.w3.org/2000/svg" xmlns:xlink="http://www.w3.org/1999/xlink" zoomAndPan="magnify"><path d="M363,1664l91-91l-235-235l-91,91v107h128v128H363z M886,736c0-14.667-7.333-22-22-22c-6.667,0-12.333,2.333-17,7l-542,542  c-4.667,4.667-7,10.333-7,17c0,14.667,7.333,22,22,22c6.667,0,12.333-2.333,17-7l542-542C883.667,748.333,886,742.667,886,736z   M832,544l416,416l-832,832H0v-416L832,544z M1515,640c0,35.333-12.333,65.333-37,90l-166,166L896,480l166-165  c24-25.333,54-38,90-38c35.333,0,65.667,12.667,91,38l235,234C1502.667,575,1515,605.333,1515,640z"/></svg>